<svg width="32" height="32" viewBox="0 0 32 32" fill="none" xmlns="http://www.w3.org/2000/svg">
  <!-- Game controller body -->
  <rect x="6" y="12" width="20" height="10" rx="5" fill="#424242" stroke="#212121" stroke-width="2"/>
  
  <!-- Controller grips -->
  <rect x="4" y="14" width="4" height="6" rx="2" fill="#616161" stroke="#424242" stroke-width="1"/>
  <rect x="24" y="14" width="4" height="6" rx="2" fill="#616161" stroke="#424242" stroke-width="1"/>
  
  <!-- D-pad -->
  <rect x="10" y="16" width="2" height="2" fill="#9E9E9E" stroke="#757575" stroke-width="1"/>
  <rect x="11" y="15" width="2" height="2" fill="#9E9E9E" stroke="#757575" stroke-width="1"/>
  <rect x="11" y="17" width="2" height="2" fill="#9E9E9E" stroke="#757575" stroke-width="1"/>
  <rect x="12" y="16" width="2" height="2" fill="#9E9E9E" stroke="#757575" stroke-width="1"/>
  
  <!-- Action buttons -->
  <circle cx="20" cy="16" r="1.5" fill="#F44336" stroke="#D32F2F" stroke-width="1"/>
  <circle cx="22" cy="16" r="1.5" fill="#4CAF50" stroke="#388E3C" stroke-width="1"/>
  <circle cx="21" cy="14.5" r="1.5" fill="#2196F3" stroke="#1976D2" stroke-width="1"/>
  <circle cx="21" cy="17.5" r="1.5" fill="#FF9800" stroke="#F57C00" stroke-width="1"/>
  
  <!-- Start/Select buttons -->
  <rect x="14" y="18" width="1" height="1" fill="#9E9E9E" rx="0.5"/>
  <rect x="16" y="18" width="1" height="1" fill="#9E9E9E" rx="0.5"/>
  
  <!-- LED indicator -->
  <circle cx="8" cy="14" r="0.5" fill="#4CAF50"/>
  
  <!-- Button highlights -->
  <circle cx="20" cy="16" r="0.5" fill="#FFCDD2" opacity="0.7"/>
  <circle cx="22" cy="16" r="0.5" fill="#C8E6C9" opacity="0.7"/>
  <circle cx="21" cy="14.5" r="0.5" fill="#BBDEFB" opacity="0.7"/>
  <circle cx="21" cy="17.5" r="0.5" fill="#FFE0B2" opacity="0.7"/>
</svg> 